<svg xmlns="http://www.w3.org/2000/svg" height="71.24541966951658" width="370" style="width: 370px; height: 71.2454px; position: absolute; top: 50%; left: 50%; transform: translate(-50%, -50%) scale(1); z-index: 0; cursor: pointer;"><defs id="SvgjsDefs1001"></defs><g id="SvgjsG1007" featurekey="symbolFeature-0" transform="matrix(0.09506993740797043,0,0,0.09506993740797043,-12.549230366874069,-11.912262797653094)" fill="#111111"><g xmlns="http://www.w3.org/2000/svg"><path d="M661.8,226L637,215.3c-12.6-5.4-27.4,0.4-32.8,13l-36.9,85.7L269.8,185.9c-4.2-34.1-33.4-60.6-68.6-60.6   c-38.1,0-69.2,31-69.2,69.1c0,38.1,31,69.2,69.2,69.2c12.3,0,23.9-3.2,33.9-8.9l322.4,138.9l27.1,11.7c10.8,4.7,23.3,1,30-8.2   c1.1-1.5,2-3.1,2.7-4.8l11.1-25.7l0.2-0.4l46.3-107.5C680.3,246.2,674.4,231.5,661.8,226z M201.2,231.9c-2.4,0-4.7-0.2-7-0.7   c-17.3-3.3-30.4-18.5-30.4-36.8c0-20.6,16.8-37.4,37.4-37.4c11.2,0,21.2,4.9,28,12.7c5.8,6.6,9.4,15.3,9.4,24.8   C238.6,215.1,221.8,231.9,201.2,231.9z"></path><path d="M628.3,366.7c-0.1,0.3-0.2,0.5-0.3,0.8l-10.7,24.8c0,0,0,0.1-0.1,0.1L628.3,366.7z"></path><path d="M545.3,279.8L387.9,212c-6.1-2.6-8.9-9.7-6.3-15.8l21-48.7c2.6-6.1,9.7-8.9,15.8-6.3l157.4,67.8   c6.1,2.6,8.9,9.7,6.3,15.8l-21,48.7C558.5,279.6,551.4,282.4,545.3,279.8z"></path><path d="M614.5,397.2c-6.7,9.2-19.2,12.9-30.1,8.3l-24.8-10.7c-0.7-0.3-1.5-0.7-2.2-1.1l27.1,11.7   C595.4,410,607.8,406.4,614.5,397.2z"></path><path d="M630.3,632.5l-24.9-10.6c0,0-0.1,0-0.1-0.1L630.3,632.5z"></path><path d="M717.5,549.4l67.1-157.7c2.6-6.1,9.7-8.9,15.7-6.3l48.7,20.7c6.1,2.6,8.9,9.7,6.3,15.7l-67.1,157.7   c-2.6,6.1-9.7,8.9-15.7,6.3l-48.7-20.7C717.8,562.5,714.9,555.4,717.5,549.4z"></path><path d="M597,616.1c0.1,0.1,0.1,0.1,0.2,0.2C597.2,616.2,597.1,616.2,597,616.1C597.1,616.1,597.1,616.1,597,616.1z   "></path><path d="M597.2,616.2c0.3,0.3,0.5,0.6,0.8,0.8C597.7,616.8,597.5,616.5,597.2,616.2z"></path><path d="M596.1,615c0.3,0.4,0.6,0.7,0.9,1c-6.7-7-9-17.6-5-27l10.6-24.9c0.3-0.7,0.7-1.4,1.1-2.1l-11.5,27.1   c-1.5,3.6-2.2,7.4-2,11.1c0,0.3,0,0.5,0.1,0.7c0,0.3,0,0.5,0.1,0.8c0,0,0,0.1,0,0.1c0.1,0.4,0.1,0.9,0.2,1.3   c0.1,0.4,0.1,0.8,0.2,1.2c0,0.2,0.1,0.4,0.2,0.6c0.1,0.4,0.2,0.7,0.3,1c0.1,0.4,0.2,0.8,0.4,1.2c0,0.2,0.1,0.3,0.2,0.5   c0.1,0.4,0.3,0.8,0.5,1.1c0.2,0.4,0.3,0.7,0.5,1.1c0.1,0.2,0.2,0.5,0.4,0.7c0,0.1,0.1,0.2,0.1,0.3c0.2,0.3,0.3,0.6,0.5,0.8   c0.1,0.3,0.3,0.5,0.5,0.7c0.2,0.3,0.4,0.7,0.7,1c0.2,0.2,0.3,0.5,0.5,0.7C595.6,614.4,595.8,614.7,596.1,615z"></path><path d="M599.3,618.2c-0.4-0.4-0.8-0.7-1.2-1.1C598.4,617.4,598.8,617.8,599.3,618.2z"></path><path d="M375.8,610.9L365,636.6c0.1-0.2,0.2-0.5,0.3-0.7l10.5-24.9C375.8,610.9,375.8,610.9,375.8,610.9z"></path><path d="M448.8,722.8l158,66.4c6.1,2.6,9,9.6,6.4,15.7l-20.5,48.8c-2.6,6.1-9.6,9-15.7,6.4l-158-66.4   c-6.1-2.6-9-9.6-6.4-15.7l20.5-48.8C435.6,723.1,442.7,720.2,448.8,722.8z"></path><path d="M435.5,609l-27.1-11.4c-9.7-4-20.6-1.5-27.5,5.6c6.9-7.2,17.9-9.8,27.6-5.7l24.9,10.5   C434.2,608.3,434.9,608.6,435.5,609z"></path><path d="M385.7,381.4l-26-10.8c0.3,0.1,0.6,0.2,0.9,0.4l25,10.4C385.7,381.3,385.7,381.3,385.7,381.4z"></path><path d="M274.1,454.8l-65.7,158.3c-2.5,6.1-9.6,9-15.7,6.5l-48.9-20.3c-6.1-2.5-9-9.6-6.5-15.7L203,425.4   c2.5-6.1,9.6-9,15.7-6.5l48.9,20.3C273.8,441.7,276.7,448.7,274.1,454.8z"></path><g><path d="M798.8,133c-38.1,0-69.2,31-69.2,69.1c0,13.9,4.1,26.8,11.2,37.6L603.7,562l-11.5,27.1    c-1.5,3.6-2.2,7.4-2,11.1c0,0.2,0,0.5,0.1,0.7c0,0.3,0,0.5,0.1,0.8c0,0,0,0.1,0,0.1c0.1,0.4,0.1,0.9,0.2,1.3    c0.1,0.4,0.1,0.8,0.2,1.2c0,0.2,0.1,0.4,0.2,0.6c0.1,0.4,0.2,0.7,0.3,1c0.1,0.4,0.2,0.8,0.4,1.2c0,0.2,0.1,0.3,0.2,0.5    c0.1,0.4,0.3,0.8,0.5,1.1c0.2,0.4,0.3,0.7,0.5,1.1c0.1,0.2,0.2,0.5,0.4,0.7c0,0.1,0.1,0.2,0.1,0.3c0.2,0.3,0.3,0.6,0.5,0.8    c0.1,0.3,0.3,0.5,0.5,0.7c0.2,0.3,0.4,0.7,0.7,1c0.2,0.2,0.3,0.5,0.5,0.7c0.3,0.3,0.5,0.6,0.8,1c0.2,0.2,0.3,0.4,0.5,0.6    c0.1,0.1,0.1,0.1,0.2,0.2c0.1,0.1,0.1,0.1,0.2,0.2c0.1,0.1,0.1,0.1,0.1,0.1c0.7,0.7,1.4,1.4,2.2,2c0,0,0,0,0,0    c0.4,0.3,0.8,0.6,1.2,0.9c1.5,1.1,3.1,2,4.8,2.7l25,10.7l1.2,0.5l107.7,45.8c12.6,5.4,27.4-0.6,32.7-13.2l10.6-24.9    c5.4-12.6-0.6-27.3-13.2-32.7l-85.9-36.5l128.2-301.3c32.1-6,56.4-34.2,56.4-68C868,164,837,133,798.8,133z M826.1,227.7    c-6.8,7.3-16.5,11.8-27.3,11.8c-20.6,0-37.4-16.8-37.4-37.4c0-0.7,0-1.5,0.1-2.2v0c1.1-19.6,17.4-35.2,37.4-35.2    c20.6,0,37.4,16.8,37.4,37.4C836.3,212,832.4,221,826.1,227.7z"></path></g><g><path d="M392.1,385.2c-1.9-1.6-4-2.9-6.3-3.8l-26-10.8l-0.3-0.1l-108.1-44.8c-12.7-5.3-27.4,0.8-32.6,13.5    l-10.4,25c-5.3,12.7,0.8,27.4,13.5,32.6l86.2,35.8L181.7,737.2c-28.7,8.4-49.7,35-49.7,66.4c0,38.1,31,69.2,69.2,69.2    c38.1,0,69.2-31,69.2-69.2c0-16.2-5.6-31.1-15-42.9l132.5-319.5c0.4-0.7,0.7-1.4,1-2.1l10.4-25C403.5,403.7,400.3,392,392.1,385.2    z M201.2,841c-20.6,0-37.4-16.8-37.4-37.4c0-7.6,2.3-14.6,6.1-20.5c6.7-10.2,18.2-16.9,31.3-16.9c19.3,0,35.2,14.7,37.2,33.5v0    c0.1,1.3,0.2,2.6,0.2,3.9C238.6,824.2,221.8,841,201.2,841z"></path></g><g><path d="M795,736.3c-12.5,0-24.3,3.4-34.5,9.2L435.5,609l-27.1-11.4c-9.7-4-20.6-1.5-27.5,5.6    c-2.1,2.2-3.9,4.7-5.1,7.7L365,636.6L319.5,745c-5.3,12.7,0.7,27.4,13.3,32.7l24.9,10.5c12.7,5.3,27.4-0.7,32.7-13.3l36.2-86.1    l299.9,126c4.5,33.8,33.5,59.9,68.5,59.9c38.1,0,69.2-31,69.2-69.2C864.2,767.4,833.2,736.3,795,736.3z M795,842.9    c-11.3,0-21.4-5-28.2-12.9h0c-5.7-6.6-9.2-15.2-9.2-24.5c0-20.6,16.8-37.4,37.4-37.4c1.9,0,3.7,0.1,5.6,0.4    c18,2.7,31.9,18.3,31.9,37C832.5,826.1,815.7,842.9,795,842.9z"></path></g></g></g><g id="SvgjsG1008" featurekey="nameFeature-0" transform="matrix(1.4246826171875,0,0,1.4246826171875,89.88588364567973,0.1520969761301867)" fill="#111111"><path d="M8.2 40.36 c-1.3333 0 -2.5199 -0.2 -3.5599 -0.6 s-1.9 -1.0267 -2.58 -1.88 s-1.18 -1.96 -1.5 -3.32 s-0.44 -2.9867 -0.36 -4.88 l3.68 0 c0 0.96 0.02668 1.8867 0.08 2.78 s0.20664 1.68 0.45996 2.36 s0.64664 1.22 1.18 1.62 s1.2933 0.6 2.28 0.6 c0.85332 0 1.5666 -0.12668 2.14 -0.38 s1.0333 -0.59332 1.38 -1.02 s0.59336 -0.93336 0.74004 -1.52 s0.22 -1.2134 0.22 -1.88 c-0.02668 -1.44 -0.5 -2.5867 -1.42 -3.44 s-2.1 -1.5866 -3.54 -2.2 c-1.1733 -0.48 -2.22 -0.96668 -3.14 -1.46 s-1.6867 -1.06 -2.3 -1.7 s-1.08 -1.3867 -1.4 -2.24 s-0.48 -1.9066 -0.48 -3.16 c0 -2.7733 0.70668 -4.8532 2.12 -6.24 s3.4133 -2.08 6 -2.08 c2.2667 0 4.06 0.70668 5.38 2.12 s1.98 3.48 1.98 6.2 l0 2.84 l-3.52 0 l0 -3.04 c0 -1.44 -0.31332 -2.6 -0.94 -3.48 s-1.62 -1.32 -2.98 -1.32 c-1.68 0 -2.8667 0.44 -3.56 1.32 s-1.0133 2.12 -0.96 3.72 c0.02668 0.66668 0.14 1.24 0.34 1.72 s0.48668 0.9 0.86 1.26 s0.82664 0.69332 1.36 1 s1.16 0.62 1.88 0.94 c0.88 0.4 1.7533 0.82668 2.62 1.28 s1.6734 1 2.42 1.64 c0.77332 0.69332 1.4266 1.5333 1.96 2.52 s0.8 2.1867 0.8 3.6 c0 2.72 -0.68 4.7868 -2.04 6.2 s-3.2267 2.12 -5.6 2.12 z M28.935000000000002 13.64 l0 26.36 l-3.6 0 l0 -26.36 l-5.88 0 l0 -3.64 l15.36 0 l0 3.64 l-5.88 0 z M50.43 40 l-2.04 -8.36 l-7.76 0 l-2.04 8.36 l-3.4 0 l8 -30 l2.76 0 l7.96 30 l-3.48 0 z M44.63 15.8 l-3.16 12.44 l6.08 0 z M71.845 32.08 c-0.02668 1.36 -0.15992 2.5533 -0.39992 3.58 s-0.63332 1.8867 -1.18 2.58 s-1.2734 1.22 -2.18 1.58 s-2.04 0.54 -3.4 0.54 c-2.3733 0 -4.1132 -0.71332 -5.22 -2.14 s-1.66 -3.4867 -1.66 -6.18 l0 -14 c0 -2.7467 0.56 -4.82 1.68 -6.22 s2.9733 -2.1 5.56 -2.1 c2.4 0 4.12 0.71332 5.16 2.14 s1.5867 3.4734 1.64 6.14 l0.04 2.56 l-3.12 0 l-0.04 -3 c0 -0.58668 -0.05332 -1.1667 -0.16 -1.74 s-0.29336 -1.0733 -0.56004 -1.5 s-0.64 -0.77336 -1.12 -1.04 s-1.12 -0.4 -1.92 -0.4 c-1.5733 0 -2.6333 0.46 -3.18 1.38 s-0.82 2.18 -0.82 3.78 l0.04 14.2 c0 1.6267 0.26 2.8334 0.78 3.62 s1.4867 1.18 2.9 1.18 c0.8 0 1.46 -0.10668 1.98 -0.32 s0.93332 -0.52 1.24 -0.92 s0.52 -0.89332 0.64 -1.48 s0.18 -1.2534 0.18 -2 l0.04 -3.24 l3.12 0 z M90.18 40 l-6.04 -14.56 l-2.76 4.4 l0 10.16 l-3.32 0 l0 -30 l3.32 0 l0 13.08 l8 -13.08 l3.96 0 l-6.84 12.36 l7.4 17.64 l-3.72 0 z M101.835 13.719999999999999 l0 9.92 l10.76 0 l0 3.6 l-10.76 0 l0 12.76 l-3.6 0 l0 -30 l14.56 0 l0 3.72 l-10.96 0 z M124.89 40.36 c-2.5067 0 -4.3932 -0.70668 -5.66 -2.12 s-1.9 -3.48 -1.9 -6.2 l0 -14 c0 -2.7467 0.64 -4.82 1.92 -6.22 s3.32 -2.1 6.12 -2.1 c2.56 0 4.4668 0.70668 5.72 2.12 s1.88 3.4533 1.88 6.12 l0 14.08 c0 2.7467 -0.61332 4.82 -1.84 6.22 s-3.3067 2.1 -6.24 2.1 z M129.53 17.92 c0 -0.58668 -0.07328 -1.1667 -0.21996 -1.74 s-0.38 -1.0866 -0.7 -1.54 s-0.74668 -0.82 -1.28 -1.1 s-1.2 -0.42 -2 -0.42 c-0.90668 0 -1.6534 0.12 -2.24 0.36 s-1.0534 0.59332 -1.4 1.06 s-0.58668 1.02 -0.72 1.66 s-0.2 1.36 -0.2 2.16 l0 13.48 c0 0.61332 0.06668 1.22 0.2 1.82 s0.35332 1.14 0.66 1.62 s0.72668 0.86668 1.26 1.16 s1.2 0.44 2 0.44 c0.90668 0 1.66 -0.11332 2.26 -0.34 s1.0733 -0.55336 1.42 -0.98004 s0.59336 -0.94668 0.74004 -1.56 s0.22 -1.2933 0.22 -2.04 l0 -14.04 z M152.865 32.08 c-0.02668 1.36 -0.15992 2.5533 -0.39992 3.58 s-0.63332 1.8867 -1.18 2.58 s-1.2734 1.22 -2.18 1.58 s-2.04 0.54 -3.4 0.54 c-2.3733 0 -4.1132 -0.71332 -5.22 -2.14 s-1.66 -3.4867 -1.66 -6.18 l0 -14 c0 -2.7467 0.56 -4.82 1.68 -6.22 s2.9733 -2.1 5.56 -2.1 c2.4 0 4.12 0.71332 5.16 2.14 s1.5867 3.4734 1.64 6.14 l0.04 2.56 l-3.12 0 l-0.04 -3 c0 -0.58668 -0.05332 -1.1667 -0.16 -1.74 s-0.29336 -1.0733 -0.56004 -1.5 s-0.64 -0.77336 -1.12 -1.04 s-1.12 -0.4 -1.92 -0.4 c-1.5733 0 -2.6333 0.46 -3.18 1.38 s-0.82 2.18 -0.82 3.78 l0.04 14.2 c0 1.6267 0.26 2.8334 0.78 3.62 s1.4867 1.18 2.9 1.18 c0.8 0 1.46 -0.10668 1.98 -0.32 s0.93332 -0.52 1.24 -0.92 s0.52 -0.89332 0.64 -1.48 s0.18 -1.2534 0.18 -2 l0.04 -3.24 l3.12 0 z M166.48000000000002 40.36 c-2.4267 0 -4.32 -0.71328 -5.68 -2.14 s-2.04 -3.4867 -2.04 -6.18 l0 -22.04 l3.48 0 l0 21.96 c0 0.56 0.07332 1.1333 0.22 1.72 s0.38 1.1067 0.7 1.56 s0.74668 0.82664 1.28 1.12 s1.1866 0.44 1.96 0.44 c0.88 0 1.6133 -0.12668 2.2 -0.38 s1.0534 -0.62 1.4 -1.1 s0.59336 -1.0533 0.74004 -1.72 s0.22 -1.4 0.22 -2.2 l0 -21.4 l3.44 0 l0 22.04 c0 2.7467 -0.65332 4.82 -1.96 6.22 s-3.2934 2.1 -5.96 2.1 z M188.975 40.36 c-1.3333 0 -2.5199 -0.2 -3.5599 -0.6 s-1.9 -1.0267 -2.58 -1.88 s-1.18 -1.96 -1.5 -3.32 s-0.44 -2.9867 -0.36 -4.88 l3.68 0 c0 0.96 0.02668 1.8867 0.08 2.78 s0.20664 1.68 0.45996 2.36 s0.64664 1.22 1.18 1.62 s1.2933 0.6 2.28 0.6 c0.85332 0 1.5666 -0.12668 2.14 -0.38 s1.0333 -0.59332 1.38 -1.02 s0.59336 -0.93336 0.74004 -1.52 s0.22 -1.2134 0.22 -1.88 c-0.02668 -1.44 -0.5 -2.5867 -1.42 -3.44 s-2.1 -1.5866 -3.54 -2.2 c-1.1733 -0.48 -2.22 -0.96668 -3.14 -1.46 s-1.6867 -1.06 -2.3 -1.7 s-1.08 -1.3867 -1.4 -2.24 s-0.48 -1.9066 -0.48 -3.16 c0 -2.7733 0.70668 -4.8532 2.12 -6.24 s3.4133 -2.08 6 -2.08 c2.2667 0 4.06 0.70668 5.38 2.12 s1.98 3.48 1.98 6.2 l0 2.84 l-3.52 0 l0 -3.04 c0 -1.44 -0.31332 -2.6 -0.94 -3.48 s-1.62 -1.32 -2.98 -1.32 c-1.68 0 -2.8667 0.44 -3.56 1.32 s-1.0133 2.12 -0.96 3.72 c0.02668 0.66668 0.14 1.24 0.34 1.72 s0.48668 0.9 0.86 1.26 s0.82664 0.69332 1.36 1 s1.16 0.62 1.88 0.94 c0.88 0.4 1.7533 0.82668 2.62 1.28 s1.6734 1 2.42 1.64 c0.77332 0.69332 1.4266 1.5333 1.96 2.52 s0.8 2.1867 0.8 3.6 c0 2.72 -0.68 4.7868 -2.04 6.2 s-3.2267 2.12 -5.6 2.12 z"></path></g></svg>